<svg xmlns="http://www.w3.org/2000/svg" version="1.1" xmlns:xlink="http://www.w3.org/1999/xlink" viewBox="0 0 7.228710903370114 1.688458083390346"><g transform="matrix(1,0,0,1,0.2755790416951731,0.509729041695173)"><g clip-path="url(#SvgjsClipPath1001)"><g clip-path="url(#aec34fea8-282a-46e0-80aa-71d0120dc028b3261bcd-e14a-4291-9c9c-d5509f804957)"><path d=" M 2.4862160148654264 0.32561975508386004 L 2.5026057284173713 0.32561975508386004 L 2.5026057284173713 0.30552100268336274 L 2.5334220820332436 0.30552100268336274 L 2.5334220820332436 0.32561975508386004 L 2.5494711828342878 0.32561975508386004 L 2.5494711828342878 0.22053422118754767 L 2.637752287653703 0.22053422118754767 L 2.637752287653703 0.32561975508386004 L 2.656423586617218 0.32561975508386004 L 2.656423586617218 0.15121822633051601 L 2.787031675955093 0.15121822633051601 L 2.787031675955093 0.32561975508386004 L 2.7869939745437335 0.32561975508386004 L 2.7869939745437335 0.3564166079697188 L 2.787031675955093 0.3564166079697188 L 2.787031675955093 0.5274653112094223 L 2.656423586617218 0.5274653112094223 L 2.656423586617218 0.3564166079697188 L 2.637752287653703 0.3564166079697188 L 2.637752287653703 0.463111602116472 L 2.5494711828342878 0.463111602116472 L 2.5494711828342878 0.3564166079697188 L 2.5334220820332436 0.3564166079697188 L 2.5334220820332436 0.37482529710238627 L 2.5026057284173713 0.37482529710238627 L 2.5026057284173713 0.3564166079697188 L 2.4862160148654264 0.3564166079697188 C 2.4723782968479044 0.33979548575494806 2.4862160148654264 0.32561975508386004 2.4862160148654264 0.32561975508386004" fill="#1d1d1d" transform="matrix(1,0,0,1,0,0)" fill-rule="nonzero"></path></g><g clip-path="url(#aec34fea8-282a-46e0-80aa-71d0120dc028b3261bcd-e14a-4291-9c9c-d5509f804957)"><path d=" M 3.732949686570006 0.32561975508386004 L 3.716559973018061 0.32561975508386004 L 3.716559973018061 0.30552100268336274 L 3.685741019304854 0.30552100268336274 L 3.685741019304854 0.32561975508386004 L 3.669694518601145 0.32561975508386004 L 3.669694518601145 0.22053422118754767 L 3.5814082135870593 0.22053422118754767 L 3.5814082135870593 0.32561975508386004 L 3.56274471491555 0.32561975508386004 L 3.56274471491555 0.15121822633051601 L 3.432128825285669 0.15121822633051601 L 3.432128825285669 0.32561975508386004 L 3.4321665266970287 0.32561975508386004 L 3.4321665266970287 0.3564166079697188 L 3.432128825285669 0.3564166079697188 L 3.432128825285669 0.5274653112094223 L 3.56274471491555 0.5274653112094223 L 3.56274471491555 0.3564166079697188 L 3.5814082135870593 0.3564166079697188 L 3.5814082135870593 0.463111602116472 L 3.669694518601145 0.463111602116472 L 3.669694518601145 0.3564166079697188 L 3.685741019304854 0.3564166079697188 L 3.685741019304854 0.37482529710238627 L 3.716559973018061 0.37482529710238627 L 3.716559973018061 0.3564166079697188 L 3.732949686570006 0.3564166079697188 C 3.747727339774175 0.3428636006103926 3.733051090366076 0.3264361856470885 3.732949686570006 0.32561975508386004" fill="#1d1d1d" transform="matrix(1,0,0,1,0,0)" fill-rule="nonzero"></path></g><g clip-path="url(#aec34fea8-282a-46e0-80aa-71d0120dc028b3261bcd-e14a-4291-9c9c-d5509f804957)"><path d=" M 3.1745358822464125 -0.1137602931891564 C 3.168468555114904 -0.10092231259698889 3.1554823689746345 -0.07875778286373686 3.1322947009400117 -0.06222246386102509 C 3.134097868441919 -0.05891253995341411 3.135218510393357 -0.055172299936840336 3.135218510393357 -0.05113434877539508 C 3.135218510393357 -0.03824826638252776 3.1247713193008346 -0.02780367538734055 3.1118852369079675 -0.02780367538734055 C 3.0990121550017755 -0.02780367538734055 3.088562363811918 -0.03824826638252776 3.088562363811918 -0.05113434877539508 C 3.088562363811918 -0.06402043116826234 3.0990121550017755 -0.07445072162810637 3.1118852369079675 -0.07445072162810637 C 3.1168956244727486 -0.07445072162810637 3.1215120972912587 -0.07284126137766553 3.12531733974121 -0.07015406078181635 C 3.131322264536676 -0.08476920790254014 3.144031540310755 -0.10642801870411084 3.168181244359373 -0.11934140211899692 C 3.1528120690114636 -0.13160216110276723 3.1333776414800902 -0.13898513748584768 3.112180347955504 -0.1390176387025367 C 3.062475587248634 -0.13893963578248303 3.0222897828856476 -0.09872133020280768 3.022179278748905 -0.049016569495937745 C 3.0222897828856476 0.0006803909189268265 3.062475587248634 0.040873995573918465 3.112180347955504 0.0409818996133261 C 3.161872108175698 0.040873995573918465 3.202090413755373 0.0006803909189268265 3.202178817064768 -0.049016569495937745 C 3.202133315361403 -0.07447542255279002 3.1915171179420976 -0.09739658061056272 3.1745358822464125 -0.1137602931891564 M 3.1275599236927536 -0.17783579186724857 L 3.1275599236927536 -0.20286692891247318 L 3.148217697020302 -0.20286692891247318 L 3.148217697020302 -0.23414999999999997 L 3.074550439272943 -0.23414999999999997 L 3.074550439272943 -0.20286692891247318 L 3.096921676744337 -0.20286692891247318 L 3.096921676744337 -0.17771228724383023 C 3.0822792512930848 -0.1759092380356608 3.0680632082441286 -0.17156752457245136 3.0549119041007624 -0.16488210694366806 L 3.037552354242817 -0.18876530101543615 L 3.0207050235598905 -0.1765318430536846 L 3.037122038133854 -0.15393569716280223 C 3.00547495341941 -0.13066872615945824 2.9849263841799365 -0.0931896231223345 2.9849263841799365 -0.05088993962589353 C 2.9849263841799365 0.019689702536007714 3.0421493263313133 0.07691394473605201 3.1127289684932147 0.07691394473605201 C 3.1833242112391265 0.07691394473605201 3.240545853341836 0.019689702536007714 3.240545853341836 -0.05088993962589353 C 3.240545853341836 -0.11647479480702431 3.1911622046558534 -0.17048141655485446 3.1275599236927536 -0.17783579186724857 M 3.112180347955504 0.04539816493703164 C 3.060027595607616 0.04537346401234804 3.0177890143985504 0.0031036816352609797 3.017763013425199 -0.049016569495937745 C 3.0177890143985504 -0.10116932184382554 3.060027595607616 -0.14344040426958013 3.112180347955504 -0.14344040426958013 C 3.1351782088846627 -0.14344040426958013 3.1562350971531523 -0.13520199586324438 3.172611810218422 -0.12153978441584302 C 3.174656565799072 -0.1224910742293003 3.1767368551837354 -0.12336404119434648 3.178848143676713 -0.12415678238364387 C 3.180959432169691 -0.12494952357294128 3.178107115936203 -0.1218530961447253 3.1764703546637434 -0.11802965301342762 C 3.194962246911135 -0.10079360777890034 3.2065911822424704 -0.07629419063870824 3.2065911822424704 -0.049016569495937745 C 3.2065911822424704 0.0031036816352610075 3.1643253000113862 0.0453734640123481 3.112180347955504 0.04539816493703169" fill="#1d1d1d" transform="matrix(1,0,0,1,0,0)" fill-rule="nonzero"></path></g><g clip-path="url(#aec34fea8-282a-46e0-80aa-71d0120dc028b3261bcd-e14a-4291-9c9c-d5509f804957)"><path d=" M 2.742039591668133 -0.16743930267276125 C 2.742039591668133 -0.1677643148396516 2.7419797894294247 -0.1677643148396516 2.7419797894294247 -0.1677643148396516 C 2.7419563885534086 -0.1677643148396516 2.741845884416666 -0.16797362267512894 2.7408578474293197 -0.16800612389181796 C 2.7373997179736067 -0.16810882773655533 2.7286282896135705 -0.16413977915449074 2.720262476437814 -0.15746532929523122 C 2.7113922443790432 -0.15076357841395288 2.7054419216276155 -0.14271237701574596 2.705035006394669 -0.13977556707572505 L 2.7059138392939404 -0.13868872638964386 C 2.705994442311329 -0.1386835261949736 2.7060048427006693 -0.13866792561096286 2.7061023463507365 -0.13866792561096286 C 2.7095604758064495 -0.13853402059820405 2.718305903193134 -0.14252907015361982 2.726725018364261 -0.1491762189908606 C 2.736165971788091 -0.15630958602976924 2.7423594036403527 -0.16505371336778635 2.742039591668133 -0.16743930267276125 M 2.964271210949723 0.1436428427446365 C 2.953353402239544 0.1283490702194457 2.890654655100399 0.046659212144565976 2.835141276946865 -0.025449287250387254 C 2.8429272684168896 -0.034080310354326515 2.8436474953787187 -0.044684807335623744 2.8436474953787187 -0.044684807335623744 L 2.7460398414182188 -0.16523051998657468 C 2.744442081605786 -0.15954540716332927 2.738092643913417 -0.15267464995526794 2.7294317196901234 -0.14569208856179638 C 2.7218901373696007 -0.1399042718938136 2.714691767897314 -0.13591962272773833 2.7091574607195055 -0.1346832764448876 L 2.806425801977772 -0.014554879416223826 C 2.813513667313316 -0.014471676301499925 2.819205280379899 -0.015669021124323834 2.823855554463766 -0.017585292860309132 L 2.955352877090253 0.1541264351998506 L 2.9717425906421977 0.1541264351998506 Z" fill="#1d1d1d" transform="matrix(1,0,0,1,0,0)" fill-rule="nonzero"></path></g><g clip-path="url(#aec34fea8-282a-46e0-80aa-71d0120dc028b3261bcd-e14a-4291-9c9c-d5509f804957)"><path d=" M 3.478860374689827 -0.1634000514626484 L 3.381298222432691 -0.04291934124507557 C 3.381298222432691 -0.04291934124507557 3.382015849297185 -0.03232264455578368 3.389797940621207 -0.023689021354509288 C 3.337461881411193 0.044286623326266705 3.278755583730129 0.12076198619555817 3.2630691965073346 0.14209578483023855 L 3.2553235065460044 0.1526638804488441 L 3.2720330320701696 0.1526638804488441 L 3.401069362568963 -0.01582242686709609 C 3.405723536798832 -0.01390095493644053 3.4114242502060885 -0.012697109870278805 3.418525116028308 -0.012775112790332471 L 3.515762256118553 -0.13289050933232063 C 3.510221448697407 -0.13411515517716333 3.502994478154434 -0.13812450526792228 3.495497097488608 -0.1439201222279104 C 3.486845273605988 -0.15086888235602536 3.4804776352322726 -0.15772793912607863 3.478860374689827 -0.1634000514626484 M 3.50466504069225 -0.1556751622799994 C 3.496249825667126 -0.16234961213925891 3.4875069983777767 -0.16631866072132345 3.4840410686300585 -0.16621075668191587 C 3.483073832421393 -0.16621075668191587 3.4829555279926447 -0.16602484972245463 3.4828268231745563 -0.16586494373634458 L 3.4828528241479075 -0.1656465355601943 C 3.482535612273022 -0.16326874654722473 3.48874724480663 -0.15454411993922107 3.4982323998851568 -0.14741075290031241 L 3.496851748200207 -0.14565308710176955 L 3.4982323998851568 -0.14737825168362337 C 3.506541010919541 -0.1407623040144041 3.5153267398149204 -0.13676205426431806 3.5187926695626386 -0.13686995830372564 C 3.518874572628695 -0.13686995830372564 3.5189174742347245 -0.13687775859573104 3.518991577008775 -0.13688035869306614 L 3.5198951108327305 -0.13799840054716883 C 3.5194751951131082 -0.14091960990317898 3.5135482732376966 -0.1489656111067157 3.50466504069225 -0.15567516227999936" fill="#1d1d1d" transform="matrix(1,0,0,1,0,0)" fill-rule="nonzero"></path></g><g clip-path="url(#aec34fea8-282a-46e0-80aa-71d0120dc028b3261bcd-e14a-4291-9c9c-d5509f804957)"><path d=" M 3.510404755559533 0.8579142816274803 C 3.510404755559533 0.8582418938917058 3.5104632577495734 0.8582418938917058 3.5104632577495734 0.8582418938917058 C 3.510485358576922 0.8582418938917058 3.5105971627623322 0.8584512017271833 3.511586499798346 0.8584837029438721 C 3.5150420291567244 0.8585864067886095 3.5238121574680923 0.8546147581092098 3.5321792706925166 0.8479403082499504 C 3.5410508027999548 0.8412450576120096 3.5470011255513825 0.8331886560191326 3.547409340832997 0.8302492459817765 L 3.5465279078363903 0.8291650053930304 C 3.5464473048190017 0.8291650053930304 3.5464356043809935 0.829142904565682 3.546339400779594 0.829142904565682 C 3.542883871421216 0.8290141997475933 3.5341358439371966 0.833006649205674 3.5257206289120724 0.8396537980429146 C 3.5162783754395748 0.8467910652278261 3.510082343489978 0.8555286923225054 3.510404755559533 0.8579142816274803 M 3.2881731362779423 0.5468347363074175 C 3.2990896449394542 0.5621285088326085 3.361789692127267 0.6438209670048232 3.4173030702808003 0.715928166351109 C 3.409517078810776 0.7245578894063807 3.408796851848947 0.7351662865336805 3.408796851848947 0.7351662865336805 L 3.506401905712112 0.855710699135964 C 3.50800226562188 0.8500255863127184 3.514349103216914 0.8431522290073221 3.5230113274888746 0.8361722677111858 C 3.530550309712062 0.8303792508485326 3.537751279281684 0.8263972017797923 3.5432868865081604 0.8251608554969418 L 3.4460185452498937 0.7050298583709429 C 3.438929379865682 0.7049479553048865 3.4332390668477664 0.7061466001763779 3.4285887927639 0.7080602718150282 L 3.2970914701374125 0.5363511438522035 L 3.2807004565368003 0.5363511438522035 Z" fill="#1d1d1d" transform="matrix(1,0,0,1,0,0)" fill-rule="nonzero"></path></g><g clip-path="url(#aec34fea8-282a-46e0-80aa-71d0120dc028b3261bcd-e14a-4291-9c9c-d5509f804957)"><path d=" M 2.7075506005663996 0.85387893056337 L 2.8051127528235353 0.7333982203457972 C 2.8051127528235353 0.7333982203457972 2.8043951259590414 0.7228015236565053 2.7966130346350195 0.7141653003578958 C 2.8489490938450333 0.646192255774455 2.9076553915260974 0.5697168929051635 2.923341778748892 0.548383094270483 L 2.931087468710222 0.5378175987492126 L 2.914377943186057 0.5378175987492126 L 2.7853416126872634 0.706297405821815 C 2.7806874384573943 0.7043798340371621 2.774986725050138 0.7031759889710005 2.767884559179251 0.7032565919883893 L 2.6706487191376733 0.8233719885303772 C 2.6761895265588196 0.82459663437522 2.6834164971017924 0.828605984465979 2.690912577718951 0.834399001328632 C 2.699564401601571 0.8413464614080794 2.705932039975286 0.8482094183241353 2.7075506005663996 0.85387893056337 M 2.681744634515309 0.8461566414780561 C 2.6901611495891005 0.8528310913373156 2.6989039768784497 0.8567975398220451 2.7023699066261684 0.8566896357826375 C 2.7033371428348336 0.8566896357826375 2.7034554472635817 0.8565063289205115 2.7035841520816706 0.8563451228857337 L 2.7035581511083193 0.8561254146609161 C 2.7038740629345366 0.8537450255506112 2.697662430400929 0.8450229990399427 2.688178575371069 0.8378922320983693 L 2.6895592270560194 0.8361293661051561 L 2.688178575371069 0.83785973088168 C 2.6798699643366852 0.8312385830177906 2.6710829353926386 0.8272409333650397 2.6676170056449204 0.8273488374044473 C 2.6675364026275314 0.8273488374044473 2.667493501021502 0.8273592377937877 2.6674180981987834 0.8273592377937877 L 2.666515864423496 0.8284772796478905 C 2.6669344800944508 0.8313997890525682 2.6728627020185303 0.8394444902074374 2.681744634515309 0.8461566414780561" fill="#1d1d1d" transform="matrix(1,0,0,1,0,0)" fill-rule="nonzero"></path></g><g clip-path="url(#SvgjsClipPath1000b3261bcd-e14a-4291-9c9c-d5509f804957)"><path d=" M 3.287718119244296 0.3564166079697189 L 3.449734084341784 0.3564166079697189 L 3.449734084341784 0.32356957833511585 L 3.287718119244296 0.32356957833511585 Z M 2.7677051524631273 0.3564166079697189 L 2.929721117560615 0.3564166079697189 L 2.929721117560615 0.32356957833511585 L 2.7677051524631273 0.32356957833511585 Z" fill="#1d1d1d" transform="matrix(1,0,0,1,0,0)" fill-rule="nonzero"></path></g><g clip-path="url(#bec34fea8-282a-46e0-80aa-71d0120dc028b3261bcd-e14a-4291-9c9c-d5509f804957)"><path d=" M 3.116941126176113 0.8694522135520866 C 3.0688133245029947 0.8694522135520866 3.0298183647194947 0.8304650540605918 3.0298183647194947 0.7823424525821436 C 3.0298183647194947 0.7342146509090255 3.0688133245029947 0.6952326916122011 3.116941126176113 0.6952326916122011 C 3.165040326778545 0.6952326916122011 3.204061287535396 0.7342146509090257 3.204061287535396 0.7823424525821436 C 3.204061287535396 0.8304650540605918 3.165040326778545 0.8694522135520866 3.116941126176113 0.8694522135520866 M 3.0647961741202305 0.6403797381817886 C 3.0648286753369196 0.6203459882146694 3.0706723940976075 0.6051380189015378 3.0795803275677374 0.5951484449399969 C 3.088532462692564 0.5851796717571371 3.100617715106214 0.5793970552838246 3.117439044815789 0.5791799471563419 L 3.1178927618007677 0.5791799471563419 C 3.1346451889309623 0.5793489534831249 3.146704440371261 0.5850535670363837 3.1557319783188063 0.595000239391895 C 3.1646581124702817 0.6049690125747547 3.170634436195061 0.6201262799898517 3.1707540406724766 0.6402081317576704 L 3.1707540406724766 0.6408178545827568 C 3.1707540406724766 0.6467473765555036 3.1701820192587498 0.652325885388009 3.1692043826607437 0.6575949826376348 C 3.152324550761128 0.650394013068013 3.135816532780435 0.646551069206702 3.1228797484895328 0.6460388500316827 C 3.103544124656894 0.6452458203444704 3.084112297222856 0.6488482552022827 3.0661131234204704 0.6560310240905587 C 3.065262909705748 0.6510284756594356 3.064822464086479 0.6459648728144138 3.0647961741202305 0.6408906573081401 Z M 3.2533825338853353 0.7690260540803138 C 3.252880715099657 0.7269980807553931 3.229708647649045 0.6960231212020782 3.2013857873775553 0.6756435582893878 C 3.2046151082677774 0.6647231494818733 3.2063181720222826 0.653016211230484 3.2063181720222826 0.6408178545827568 L 3.2063181720222826 0.6401080280102682 C 3.206219368323548 0.613069615822329 3.1979900602578852 0.5888744100703462 3.182243870796383 0.571267850965564 C 3.166544483086913 0.5535845889893956 3.143402316755655 0.5434741105017717 3.117795258150701 0.5436158158065358 L 3.1168930243754134 0.5436158158065358 C 3.09140817034521 0.5437419205272893 3.0684610113140858 0.5539044009616156 3.052947530564077 0.5715356609910818 C 3.0373040449473123 0.5892163228699148 3.0292190422837493 0.6134141287192327 3.0292190422837493 0.6403797381817884 C 3.02923984306243 0.640452540907172 3.02923984306243 0.6406722491319898 3.02923984306243 0.641062263732258 C 3.0292918450091326 0.6525780948295159 3.030893504967568 0.6635700063137464 3.033783513155557 0.6739313941942096 C 3.002769552142215 0.6966783457305292 2.981330449565462 0.7315274503131766 2.9817919668424464 0.7721110695684366 C 2.982647398865702 0.8453298105254872 3.0114421768035164 0.9043975217361333 3.1191148075482755 0.9031299742852612 C 3.235457462857001 0.9017597229896517 3.2542392659572585 0.8422174940153455 3.2533825338853353 0.7690260540803138 M 3.033883616902959 0.7823424525821436 C 3.033956419628342 0.828230270401054 3.0710494082112003 0.8652933578645581 3.116941126176113 0.8654168624879763 C 3.1628068431676746 0.8652933578645581 3.1998998317505327 0.828230270401054 3.199972634475916 0.7823424525821436" fill="#1d1d1d" transform="matrix(1,0,0,1,0,0)" fill-rule="nonzero"></path></g><g clip-path="url(#SvgjsClipPath1000b3261bcd-e14a-4291-9c9c-d5509f804957)"><path d=" M 2.976817922469534 0.3200693213665368 L 3.105811351362298 0.34832977930198367 L 3.0090656296683913 0.5135828655816992 L 3.234839881569086 0.29993936779801816 L 3.1259920068288514 0.267703361037169 L 3.214657926053865 0.13866183034370527 Z" fill="#1d1d1d" transform="matrix(1,0,0,1,0,0)" fill-rule="nonzero"></path></g></g><g><path d=" M 0.333 0.027000000000000135 L 0.493 0.027000000000000135 L 0.493 0.6690000000000002 L 0.343 0.6690000000000002 L 0.2 0.33200000000000013 L 0.2 0.6690000000000002 L 0.04 0.6690000000000002 L 0.04 0.027000000000000135 L 0.19 0.027000000000000135 L 0.333 0.37000000000000016 L 0.333 0.027000000000000135 M 0.71002001953125 0.17000000000000015 L 0.8320200195312499 0.17000000000000015 Q 0.97902001953125 0.17000000000000015 0.97902001953125 0.29400000000000015 L 0.97902001953125 0.46400000000000013 L 0.7240200195312501 0.46400000000000013 L 0.7240200195312501 0.5300000000000001 Q 0.7240200195312501 0.5520000000000002 0.74902001953125 0.5520000000000002 L 0.79302001953125 0.5520000000000002 Q 0.81802001953125 0.5520000000000002 0.81802001953125 0.5280000000000001 L 0.81802001953125 0.5000000000000001 L 0.97902001953125 0.5000000000000001 L 0.97902001953125 0.5450000000000002 Q 0.97902001953125 0.6690000000000002 0.8320200195312499 0.6690000000000002 L 0.71002001953125 0.6690000000000002 Q 0.56302001953125 0.6690000000000002 0.56302001953125 0.5450000000000002 L 0.56302001953125 0.29400000000000015 Q 0.56302001953125 0.17000000000000015 0.71002001953125 0.17000000000000015 M 0.7240200195312501 0.37200000000000016 L 0.81802001953125 0.37200000000000016 L 0.81802001953125 0.30900000000000016 Q 0.81802001953125 0.28700000000000014 0.79302001953125 0.28700000000000014 L 0.74902001953125 0.28700000000000014 Q 0.7240200195312501 0.28700000000000014 0.7240200195312501 0.30900000000000016 L 0.7240200195312501 0.37200000000000016 M 1.3270283203125 0.41100000000000014 L 1.4510283203125 0.6690000000000002 L 1.2790283203125 0.6690000000000002 L 1.2250283203125 0.5210000000000001 L 1.1760283203125 0.6690000000000002 L 1.0100283203125 0.6690000000000002 L 1.1240283203125 0.41400000000000015 L 1.0040283203125 0.17000000000000015 L 1.1820283203125 0.17000000000000015 L 1.2250283203125 0.30900000000000016 L 1.2680283203125 0.17000000000000015 L 1.4370283203125 0.17000000000000015 L 1.3270283203125 0.41100000000000014 M 1.7250498046875 0.17000000000000015 L 1.8950498046875 0.17000000000000015 L 1.8950498046875 0.6690000000000002 L 1.7280498046875001 0.6690000000000002 L 1.7280498046875001 0.6050000000000002 Q 1.7140498046875 0.6690000000000002 1.6370498046875 0.6690000000000002 L 1.6190498046875 0.6690000000000002 Q 1.4860498046875 0.6690000000000002 1.4860498046875 0.5450000000000002 L 1.4860498046875 0.17000000000000015 L 1.6560498046875 0.17000000000000015 L 1.6560498046875 0.5220000000000001 Q 1.6560498046875 0.5440000000000002 1.6810498046875 0.5440000000000002 L 1.6980498046874999 0.5440000000000002 Q 1.7250498046875 0.5440000000000002 1.7250498046875 0.5140000000000001 L 1.7250498046875 0.17000000000000015 M 2.19005859375 0.5370000000000001 L 2.19005859375 0.4970000000000001 Q 2.19005859375 0.47500000000000014 2.16505859375 0.47500000000000014 L 2.10405859375 0.47500000000000014 Q 1.96005859375 0.47500000000000014 1.96005859375 0.35200000000000015 L 1.96005859375 0.29400000000000015 Q 1.96005859375 0.17000000000000015 2.10705859375 0.17000000000000015 L 2.20005859375 0.17000000000000015 Q 2.34705859375 0.17000000000000015 2.34705859375 0.29400000000000015 L 2.34705859375 0.33600000000000013 L 2.18505859375 0.33600000000000013 L 2.18505859375 0.30200000000000016 Q 2.18505859375 0.28000000000000014 2.16005859375 0.28000000000000014 L 2.15005859375 0.28000000000000014 Q 2.12505859375 0.28000000000000014 2.12505859375 0.30200000000000016 L 2.12505859375 0.34600000000000014 Q 2.12505859375 0.36800000000000016 2.15005859375 0.36800000000000016 L 2.21105859375 0.36800000000000016 Q 2.2880585937499998 0.36800000000000016 2.32155859375 0.39950000000000013 Q 2.35505859375 0.43100000000000016 2.35505859375 0.49000000000000016 L 2.35505859375 0.5450000000000002 Q 2.35505859375 0.6690000000000002 2.20805859375 0.6690000000000002 L 2.11005859375 0.6690000000000002 Q 1.96305859375 0.6690000000000002 1.96305859375 0.5450000000000002 L 1.96305859375 0.5040000000000001 L 2.12805859375 0.5040000000000001 L 2.12805859375 0.5370000000000001 Q 2.12805859375 0.5590000000000002 2.15305859375 0.5590000000000002 L 2.16505859375 0.5590000000000002 Q 2.19005859375 0.5590000000000002 2.19005859375 0.5370000000000001" fill="#1d1d1d" fill-rule="nonzero"></path></g><g><path d=" M 4.264540124667268 0.15200000000000014 L 4.054540124667268 0.15200000000000014 L 4.054540124667268 0.30800000000000016 L 4.236540124667267 0.30800000000000016 L 4.236540124667267 0.42300000000000015 L 4.054540124667268 0.42300000000000015 L 4.054540124667268 0.6690000000000002 L 3.8795401246672676 0.6690000000000002 L 3.8795401246672676 0.027000000000000135 L 4.264540124667268 0.027000000000000135 L 4.264540124667268 0.15200000000000014 M 4.316542566073518 0.1200000000000001 L 4.316542566073518 1.1102230246251565e-16 L 4.492542566073518 1.1102230246251565e-16 L 4.492542566073518 0.1200000000000001 L 4.316542566073518 0.1200000000000001 M 4.489542566073518 0.6690000000000002 L 4.319542566073518 0.6690000000000002 L 4.319542566073518 0.17000000000000015 L 4.489542566073518 0.17000000000000015 L 4.489542566073518 0.6690000000000002 M 4.822542566073518 0.29500000000000015 L 4.759542566073518 0.29500000000000015 L 4.759542566073518 0.5220000000000001 Q 4.759542566073518 0.5440000000000002 4.784542566073518 0.5440000000000002 L 4.821542566073518 0.5440000000000002 L 4.821542566073518 0.6690000000000002 L 4.736542566073518 0.6690000000000002 Q 4.589542566073518 0.6690000000000002 4.589542566073518 0.5450000000000002 L 4.589542566073518 0.29500000000000015 L 4.534542566073518 0.29500000000000015 L 4.534542566073518 0.17000000000000015 L 4.589542566073518 0.17000000000000015 L 4.589542566073518 0.07200000000000017 L 4.759542566073518 0.07200000000000017 L 4.759542566073518 0.17000000000000015 L 4.822542566073518 0.17000000000000015 L 4.822542566073518 0.29500000000000015 M 5.130521081698518 0.17000000000000015 L 5.148521081698518 0.17000000000000015 Q 5.281521081698518 0.17000000000000015 5.281521081698518 0.29400000000000015 L 5.281521081698518 0.6690000000000002 L 5.111521081698518 0.6690000000000002 L 5.111521081698518 0.31700000000000017 Q 5.111521081698518 0.29500000000000015 5.086521081698518 0.29500000000000015 L 5.069521081698518 0.29500000000000015 Q 5.042521081698518 0.29500000000000015 5.042521081698518 0.3250000000000001 L 5.042521081698518 0.6690000000000002 L 4.872521081698518 0.6690000000000002 L 4.872521081698518 0.17000000000000015 L 5.039521081698518 0.17000000000000015 L 5.039521081698518 0.23400000000000015 Q 5.053521081698518 0.17000000000000015 5.130521081698518 0.17000000000000015 M 5.493529870761018 0.17000000000000015 L 5.615529870761018 0.17000000000000015 Q 5.762529870761018 0.17000000000000015 5.762529870761018 0.29400000000000015 L 5.762529870761018 0.46400000000000013 L 5.507529870761018 0.46400000000000013 L 5.507529870761018 0.5300000000000001 Q 5.507529870761018 0.5520000000000002 5.532529870761018 0.5520000000000002 L 5.576529870761018 0.5520000000000002 Q 5.601529870761018 0.5520000000000002 5.601529870761018 0.5280000000000001 L 5.601529870761018 0.5000000000000001 L 5.762529870761018 0.5000000000000001 L 5.762529870761018 0.5450000000000002 Q 5.762529870761018 0.6690000000000002 5.615529870761018 0.6690000000000002 L 5.493529870761018 0.6690000000000002 Q 5.346529870761018 0.6690000000000002 5.346529870761018 0.5450000000000002 L 5.346529870761018 0.29400000000000015 Q 5.346529870761018 0.17000000000000015 5.493529870761018 0.17000000000000015 M 5.507529870761018 0.37200000000000016 L 5.601529870761018 0.37200000000000016 L 5.601529870761018 0.30900000000000016 Q 5.601529870761018 0.28700000000000014 5.576529870761018 0.28700000000000014 L 5.532529870761018 0.28700000000000014 Q 5.507529870761018 0.28700000000000014 5.507529870761018 0.30900000000000016 L 5.507529870761018 0.37200000000000016 M 6.042538171542268 0.5370000000000001 L 6.042538171542268 0.4970000000000001 Q 6.042538171542268 0.47500000000000014 6.017538171542268 0.47500000000000014 L 5.956538171542268 0.47500000000000014 Q 5.812538171542268 0.47500000000000014 5.812538171542268 0.35200000000000015 L 5.812538171542268 0.29400000000000015 Q 5.812538171542268 0.17000000000000015 5.959538171542268 0.17000000000000015 L 6.052538171542268 0.17000000000000015 Q 6.199538171542268 0.17000000000000015 6.199538171542268 0.29400000000000015 L 6.199538171542268 0.33600000000000013 L 6.037538171542268 0.33600000000000013 L 6.037538171542268 0.30200000000000016 Q 6.037538171542268 0.28000000000000014 6.012538171542268 0.28000000000000014 L 6.002538171542268 0.28000000000000014 Q 5.977538171542268 0.28000000000000014 5.977538171542268 0.30200000000000016 L 5.977538171542268 0.34600000000000014 Q 5.977538171542268 0.36800000000000016 6.002538171542268 0.36800000000000016 L 6.063538171542268 0.36800000000000016 Q 6.140538171542268 0.36800000000000016 6.174038171542268 0.39950000000000013 Q 6.207538171542268 0.43100000000000016 6.207538171542268 0.49000000000000016 L 6.207538171542268 0.5450000000000002 Q 6.207538171542268 0.6690000000000002 6.060538171542268 0.6690000000000002 L 5.962538171542268 0.6690000000000002 Q 5.815538171542268 0.6690000000000002 5.815538171542268 0.5450000000000002 L 5.815538171542268 0.5040000000000001 L 5.980538171542268 0.5040000000000001 L 5.980538171542268 0.5370000000000001 Q 5.980538171542268 0.5590000000000002 6.005538171542268 0.5590000000000002 L 6.017538171542268 0.5590000000000002 Q 6.042538171542268 0.5590000000000002 6.042538171542268 0.5370000000000001 M 6.487545495761018 0.5370000000000001 L 6.487545495761018 0.4970000000000001 Q 6.487545495761018 0.47500000000000014 6.462545495761018 0.47500000000000014 L 6.401545495761018 0.47500000000000014 Q 6.257545495761018 0.47500000000000014 6.257545495761018 0.35200000000000015 L 6.257545495761018 0.29400000000000015 Q 6.257545495761018 0.17000000000000015 6.404545495761018 0.17000000000000015 L 6.497545495761018 0.17000000000000015 Q 6.644545495761018 0.17000000000000015 6.644545495761018 0.29400000000000015 L 6.644545495761018 0.33600000000000013 L 6.482545495761018 0.33600000000000013 L 6.482545495761018 0.30200000000000016 Q 6.482545495761018 0.28000000000000014 6.457545495761018 0.28000000000000014 L 6.447545495761018 0.28000000000000014 Q 6.422545495761018 0.28000000000000014 6.422545495761018 0.30200000000000016 L 6.422545495761018 0.34600000000000014 Q 6.422545495761018 0.36800000000000016 6.447545495761018 0.36800000000000016 L 6.508545495761018 0.36800000000000016 Q 6.585545495761018 0.36800000000000016 6.619045495761018 0.39950000000000013 Q 6.652545495761018 0.43100000000000016 6.652545495761018 0.49000000000000016 L 6.652545495761018 0.5450000000000002 Q 6.652545495761018 0.6690000000000002 6.505545495761018 0.6690000000000002 L 6.407545495761018 0.6690000000000002 Q 6.260545495761018 0.6690000000000002 6.260545495761018 0.5450000000000002 L 6.260545495761018 0.5040000000000001 L 6.425545495761018 0.5040000000000001 L 6.425545495761018 0.5370000000000001 Q 6.425545495761018 0.5590000000000002 6.450545495761018 0.5590000000000002 L 6.462545495761018 0.5590000000000002 Q 6.487545495761018 0.5590000000000002 6.487545495761018 0.5370000000000001" fill="#1d1d1d" fill-rule="nonzero"></path></g><g></g></g><defs><clipPath id="SvgjsClipPath1001"><path d=" M 2.48006591796875 -0.2341499999999999 h 1.2594742066985174 v 1.1373 h -1.2594742066985174 Z"></path></clipPath><clipPath id="aec34fea8-282a-46e0-80aa-71d0120dc028b3261bcd-e14a-4291-9c9c-d5509f804957"><path d=" M 2.4800667846678617 0.9204661232671907 L 3.7395409333145415 0.9204661232671907 L 3.7395409333145415 -0.23415000000000014 L 2.4800667846678617 -0.23415000000000014 Z"></path></clipPath><clipPath id="SvgjsClipPath1000b3261bcd-e14a-4291-9c9c-d5509f804957"><path d=" M 2.48006591796875 -0.2341499999999999 L 3.7395401246672675 -0.2341499999999999 L 3.7395401246672675 0.9031500000000001 L 2.48006591796875 0.9031500000000001 Z"></path></clipPath><clipPath id="bec34fea8-282a-46e0-80aa-71d0120dc028b3261bcd-e14a-4291-9c9c-d5509f804957"><path d=" M 2.8674747873577817 0.9204661232671907 L 3.25341763519936 0.9204661232671907 L 3.25341763519936 0.543595015027855 L 2.8674747873577817 0.543595015027855 Z"></path></clipPath></defs></svg>