<svg xmlns="http://www.w3.org/2000/svg" version="1.1" xmlns:xlink="http://www.w3.org/1999/xlink" xmlns:svgjs="http://svgjs.dev/svgjs" width="100%" height="100%" viewBox="0 0 1000 600"><rect width="1000" height="600" x="0" y="0" fill="#0d0d0d"/><g><rect width="333.3333333333333" height="333.3333333333333" y="315.5789328420907" fill="#e0e0e0" transform="matrix(0.4261024360242978,0,0,0.4261024360242978,0,94.513980749446)" x="293.35668945312494"/><path d="M390.3204237876324 407.24562020640417Q417.11562250761125 407.24562020640417 432.28382971253325 423.1810908107969Q447.48154704820405 439.1165614151896 447.48154704820405 468.65620229481385L447.48154704820405 468.65620229481385L447.48154704820405 557.2456148029378L431.75264735905347 557.2456148029378L431.75264735905347 469.06934412529813Q431.75264735905347 445.49074965694666 420.0666355824988 433.3620859191589Q408.38062380594414 421.26293231212 387.36941071274487 421.26293231212L387.36941071274487 421.26293231212Q365.2663227818372 421.26293231212 352.9310881288073 434.12934931862964Q340.6253636065262 446.96625619439044 340.6253636065262 472.6695800766609L340.6253636065262 472.6695800766609L340.6253636065262 557.2456148029378L324.8964639173756 557.2456148029378L324.8964639173756 408.5145558286058L339.976140730051 408.5145558286058L339.976140730051 433.5981669651499Q354.2000237510089 407.24562020640417 390.3204237876324 407.24562020640417L390.3204237876324 407.24562020640417ZM552.4490821219538 421.26293231212Q530.5525651062883 421.26293231212 519.8403876444465 431.1488261129933Q509.09870005185593 441.03471991386647 509.09870005185593 459.71463267790466L509.09870005185593 459.71463267790466L509.09870005185593 480.54878498661066L580.0705645029013 480.54878498661066L580.0705645029013 494.15295526184224L509.09870005185593 494.15295526184224L509.09870005185593 557.2456148029378L493.36980036270535 557.2456148029378L493.36980036270535 459.5080617626625Q493.36980036270535 435.07367350259364 508.68555822137165 421.1448917891245Q523.9718059492891 407.24562020640417 551.7998592454787 407.24562020640417L551.7998592454787 407.24562020640417Q578.8016288806996 407.24562020640417 595.1502413155765 418.93163198295883L595.1502413155765 418.93163198295883L589.4252759502947 431.88657938171514Q574.9653118833457 421.26293231212 552.4490821219538 421.26293231212L552.4490821219538 421.26293231212Z " fill="#0d0d0d" transform="matrix(0.4261024360242978,0,0,0.4261024360242978,0,94.513980749446)"/><path d="M771.8586121584758 414.4694925357165Q797.1840125101827 414.4694925357165 811.5201972907745 429.53085397836156Q825.8842734814451 444.5922154210066 825.8842734814451 472.5115169100579L825.8842734814451 472.5115169100579L825.8842734814451 556.2415299671328L811.0181519093529 556.2415299671328L811.0181519093529 472.90199665116353Q811.0181519093529 450.61675999806465 799.9731535180799 439.153390455607Q788.9281551268069 427.71791232322835 769.0694711505786 427.71791232322835L769.0694711505786 427.71791232322835Q748.1788050014283 427.71791232322835 736.5201955884179 439.8785671176603Q724.8894775854864 452.0113305020132 724.8894775854864 476.3047486807981L724.8894775854864 476.3047486807981L724.8894775854864 556.2415299671328L710.0233560133942 556.2415299671328L710.0233560133942 415.6688231691123L724.275866563749 415.6688231691123L724.275866563749 439.3765217362388Q737.7195262218137 414.4694925357165 771.8586121584758 414.4694925357165L771.8586121584758 414.4694925357165ZM912.6544502371281 544.5829205541224Q922.4722265849263 544.5829205541224 930.811758198539 541.0686028841719Q939.1512898121517 537.5542852142214 944.9805945186571 530.7487811549521L944.9805945186571 530.7487811549521L953.013320621401 539.9808378910919Q945.9846852815 548.4040437349415 935.5254065018854 552.8387779374982Q925.0940191323497 557.2456207299758 912.4313189564963 557.2456207299758L912.4313189564963 557.2456207299758Q896.1706268804554 557.2456207299758 883.5358181146811 550.3285510303906Q870.8731179388275 543.3835899207265 863.8444825989264 531.1392608960577Q856.8158472590254 518.8949318713888 856.8158472590254 503.4151992775592L856.8158472590254 503.4151992775592Q856.8158472590254 487.96335809380855 863.5376770880579 475.7190290691397Q870.2595069170901 463.47470004447086 882.1133562006534 456.64130457512266Q893.9672054842166 449.8079091057744 909.0285669268618 449.8079091057744L909.0285669268618 449.8079091057744Q923.0858376066636 449.8079091057744 934.4376415088055 456.22293342393806Q945.7894454109472 462.66584915218067 952.5112752399795 474.1013272845593Q959.2331050690119 485.5646968270169 959.6235848101174 500.2076871184774L959.6235848101174 500.2076871184774L872.8812994645135 517.0819902162557Q876.8976625158856 529.9399302626618 887.4406155257371 537.2753711134317Q897.9835685355887 544.5829205541224 912.6544502371281 544.5829205541224L912.6544502371281 544.5829205541224ZM909.0285669268618 462.05223813044324Q897.9835685355887 462.05223813044324 889.2535571808704 467.18425758497415Q880.5235458261519 472.2883856294261 875.5867662421739 481.43676813532903Q870.6778780682747 490.58515064123196 870.6778780682747 502.4111085147162L870.6778780682747 502.4111085147162Q870.6778780682747 505.4233808032452 870.8731179388275 506.84584271727283L870.8731179388275 506.84584271727283L945.3710742597626 492.37020088628617Q942.972412992971 479.1217810987743 933.1267452350938 470.5870096146088Q923.2810774772166 462.05223813044324 909.0285669268618 462.05223813044324L909.0285669268618 462.05223813044324ZM1069.292609240637 556.2415299671328L1053.004025754517 556.2415299671328L1019.478550839592 512.0615364020407L985.7299446440355 556.2415299671328L969.6644924385474 556.2415299671328L1011.4458247368481 502.0206287736106L971.6726739642335 450.61675999806465L987.7381261697216 450.61675999806465L1019.478550839592 491.9797211451806L1051.2189755094628 450.61675999806465L1066.866056563766 450.61675999806465L1027.1207972012303 502.0206287736106L1069.292609240637 556.2415299671328ZM1171.905106921176 450.61675999806465L1186.1576174715306 450.61675999806465L1186.1576174715306 556.2415299671328L1172.490826532834 556.2415299671328L1172.490826532834 536.9685656025629Q1166.8846531069607 546.5911020798084 1157.0389853490838 551.918361404892Q1147.1933175912063 557.2456207299758 1134.558508825432 557.2456207299758L1134.558508825432 557.2456207299758Q1113.8630825468344 557.2456207299758 1101.9255590330345 545.6985769572813Q1089.960144109155 534.1515331845867 1089.960144109155 511.8662965314879L1089.960144109155 511.8662965314879L1089.960144109155 450.61675999806465L1104.21265465951 450.61675999806465L1104.21265465951 510.44383461746025Q1104.21265465951 527.1228978446857 1112.4685120428858 535.7692349691671Q1120.6964780161825 544.3876806835696 1135.9530793293807 544.3876806835696L1135.9530793293807 544.3876806835696Q1152.6321425566061 544.3876806835696 1162.2546790338515 534.2630988249026Q1171.905106921176 524.1106255561567 1171.905106921176 506.03699182498264L1171.905106921176 506.03699182498264L1171.905106921176 450.61675999806465ZM1254.435789344855 557.2456207299758Q1241.5778492984487 557.2456207299758 1229.8355656552012 553.5360631894725Q1218.0932820119538 549.8265056489691 1211.4551264131587 544.1924408130167L1211.4551264131587 544.1924408130167L1217.8980421414012 532.9522025511909Q1224.5083063301176 538.1678962359588 1234.5492139585476 541.4869740353565Q1244.5901215869776 544.806051834754 1255.4398801076977 544.806051834754L1255.4398801076977 544.806051834754Q1269.8876305286058 544.806051834754 1276.8325916382696 540.2876434019606Q1283.7496613378548 535.7692349691671 1283.7496613378548 527.5133775857913L1283.7496613378548 527.5133775857913Q1283.7496613378548 521.7119642893651 1279.9285381570357 518.3928864899674Q1276.1353063862953 515.0738086905696 1270.3060016797904 513.3724326757524Q1264.476696973285 511.671056660935 1254.8262690859606 510.0533548763546L1254.8262690859606 510.0533548763546Q1241.9962204496333 507.654693609563 1234.158734217442 505.14446670245553Q1226.321247985251 502.634239795348 1220.7987487896144 496.60969521828997Q1215.2762495939778 490.58515064123196 1215.2762495939778 479.9306319910645L1215.2762495939778 479.9306319910645Q1215.2762495939778 466.68221220355264 1226.321247985251 458.23111494962404Q1237.366246376524 449.8079091057744 1257.0575818922784 449.8079091057744L1257.0575818922784 449.8079091057744Q1267.293729391261 449.8079091057744 1277.529876890244 452.5133758834347Q1287.766024389227 455.21884266109504 1294.4041799880224 459.6535768636516L1294.4041799880224 459.6535768636516L1288.1843955404115 471.0890549960303Q1275.1312156234521 462.05223813044324 1257.0575818922784 462.05223813044324L1257.0575818922784 462.05223813044324Q1243.390790953582 462.05223813044324 1236.4737212539967 466.87745207410546Q1229.5287601443324 471.7026660177677 1229.5287601443324 479.5401522499589L1229.5287601443324 479.5401522499589Q1229.5287601443324 485.5646968270169 1233.4614489654678 489.16268872720434Q1237.366246376524 492.7885720374708 1243.195551083029 494.48994805228807Q1249.0248557895343 496.19132406710537 1259.2610032885173 498.0042657222386L1259.2610032885173 498.0042657222386Q1271.8958120542916 500.4029269890302 1279.5380584159298 502.8294796659008Q1287.1803047775684 505.2281409326924 1292.5912383328891 511.0574456391976Q1298.00217188821 516.8867503457029 1298.00217188821 527.1228978446857L1298.00217188821 527.1228978446857Q1298.00217188821 540.984928653935 1286.455128115515 549.1013289869159Q1274.9080843428205 557.2456207299758 1254.435789344855 557.2456207299758L1254.435789344855 557.2456207299758ZM1434.5585156348584 427.71791232322835Q1413.89098076634 427.71791232322835 1403.7385074975937 437.06153469968405Q1393.613925638927 446.4051570761398 1393.613925638927 464.0604196561293L1393.613925638927 464.0604196561293L1393.613925638927 483.75175517188376L1460.6648754687762 483.75175517188376L1460.6648754687762 496.60969521828997L1393.613925638927 496.60969521828997L1393.613925638927 556.2415299671328L1378.7478040668348 556.2415299671328L1378.7478040668348 463.86517978557646Q1378.7478040668348 440.7710922401874 1393.1955544877424 427.6063466829125Q1407.671196318729 414.4694925357165 1433.9727960231999 414.4694925357165L1433.9727960231999 414.4694925357165Q1459.4655448353806 414.4694925357165 1474.9452774292104 425.51449092698954L1474.9452774292104 425.51449092698954L1469.5064524638105 437.7588199516584Q1455.867552935193 427.71791232322835 1434.5585156348584 427.71791232322835L1434.5585156348584 427.71791232322835ZM1493.7998706425956 556.2415299671328L1493.7998706425956 450.61675999806465L1508.0802726030292 450.61675999806465L1508.0802726030292 556.2415299671328L1493.7998706425956 556.2415299671328ZM1501.0516372631282 427.5226724526755Q1496.6169030605715 427.5226724526755 1493.6046307720426 424.5104001641465Q1490.5923584835136 421.4981278756175 1490.5923584835136 417.28652495369266L1490.5923584835136 417.28652495369266Q1490.5923584835136 413.2701619023207 1493.6046307720426 410.25788961379163Q1496.6169030605715 407.2456173252627 1501.0516372631282 407.2456173252627L1501.0516372631282 407.2456173252627Q1505.4584800556058 407.2456173252627 1508.4707523441352 410.1463239734758Q1511.4830246326642 413.04703062168886 1511.4830246326642 417.06339367306094L1511.4830246326642 417.06339367306094Q1511.4830246326642 421.4981278756175 1508.4707523441352 424.5104001641465Q1505.4584800556058 427.5226724526755 1501.0516372631282 427.5226724526755L1501.0516372631282 427.5226724526755ZM1594.8225579486334 539.5624667399073L1599.8430117628482 549.8265056489691Q1595.826648711476 553.4244975491565 1589.9973440049712 555.3490048446056Q1584.1680392984658 557.2456207299758 1577.753014980302 557.2456207299758L1577.753014980302 557.2456207299758Q1562.8868934082097 557.2456207299758 1554.854167305466 549.2128946272317Q1546.8214412027219 541.1801685244877 1546.8214412027219 526.5092868229483L1546.8214412027219 526.5092868229483L1546.8214412027219 427.5226724526755L1561.0739517530765 427.5226724526755L1561.0739517530765 450.61675999806465L1593.0096162935001 450.61675999806465L1593.0096162935001 462.66584915218067L1561.0739517530765 462.66584915218067L1561.0739517530765 525.728327340737Q1561.0739517530765 535.1556239474297 1565.7039258261862 540.0645121213288Q1570.3338998992954 545.001291705307 1579.1475854842506 545.001291705307L1579.1475854842506 545.001291705307Q1588.798013371575 545.001291705307 1594.8225579486334 539.5624667399073L1594.8225579486334 539.5624667399073ZM1679.5566617685513 449.8079091057744Q1699.4432371548583 449.8079091057744 1711.1855207981057 461.35495287846896Q1722.9556958514322 472.90199665116353 1722.9556958514322 494.9919934337096L1722.9556958514322 494.9919934337096L1722.9556958514322 556.2415299671328L1708.675293890998 556.2415299671328L1708.675293890998 496.3865639376582Q1708.675293890998 479.9306319910645 1700.4473279177014 471.2842948665831Q1692.2193619444047 462.66584915218067 1676.9627606312065 462.66584915218067L1676.9627606312065 462.66584915218067Q1659.8932176628755 462.66584915218067 1649.9359842646827 472.7904310108476Q1640.0066422765685 482.9429042795935 1640.0066422765685 500.82129814021476L1640.0066422765685 500.82129814021476L1640.0066422765685 556.2415299671328L1625.7541317262135 556.2415299671328L1625.7541317262135 450.61675999806465L1639.393031254831 450.61675999806465L1639.393031254831 470.0849642331873Q1645.2223359613363 460.46242775594186 1655.570049100635 455.13516843085813Q1665.9177622399338 449.8079091057744 1679.5566617685513 449.8079091057744L1679.5566617685513 449.8079091057744ZM1807.299319930244 544.5829205541224Q1817.1170962780425 544.5829205541224 1825.4566278916554 541.0686028841719Q1833.796159505268 537.5542852142214 1839.6254642117733 530.7487811549521L1839.6254642117733 530.7487811549521L1847.6581903145175 539.9808378910919Q1840.6295549746164 548.4040437349415 1830.1702761950019 552.8387779374982Q1819.738888825466 557.2456207299758 1807.0761886496125 557.2456207299758L1807.0761886496125 557.2456207299758Q1790.8154965735716 557.2456207299758 1778.1806878077973 550.3285510303906Q1765.517987631944 543.3835899207265 1758.489352292043 531.1392608960577Q1751.4607169521419 518.8949318713888 1751.4607169521419 503.4151992775592L1751.4607169521419 503.4151992775592Q1751.4607169521419 487.96335809380855 1758.182546781174 475.7190290691397Q1764.9043766102063 463.47470004447086 1776.7582258937696 456.64130457512266Q1788.6120751773328 449.8079091057744 1803.673436619978 449.8079091057744L1803.673436619978 449.8079091057744Q1817.73070729978 449.8079091057744 1829.082511201922 456.22293342393806Q1840.4343151040634 462.66584915218067 1847.1561449330957 474.1013272845593Q1853.877974762128 485.5646968270169 1854.268454503234 500.2076871184774L1854.268454503234 500.2076871184774L1767.5261691576297 517.0819902162557Q1771.5425322090018 529.9399302626618 1782.0854852188536 537.2753711134317Q1792.628438228705 544.5829205541224 1807.299319930244 544.5829205541224L1807.299319930244 544.5829205541224ZM1803.673436619978 462.05223813044324Q1792.628438228705 462.05223813044324 1783.8984268739869 467.18425758497415Q1775.1684155192684 472.2883856294261 1770.23163593529 481.43676813532903Q1765.322747761391 490.58515064123196 1765.322747761391 502.4111085147162L1765.322747761391 502.4111085147162Q1765.322747761391 505.4233808032452 1765.517987631944 506.84584271727283L1765.517987631944 506.84584271727283L1840.0159439528793 492.37020088628617Q1837.617282686087 479.1217810987743 1827.77161492821 470.5870096146088Q1817.9259471703326 462.05223813044324 1803.673436619978 462.05223813044324L1803.673436619978 462.05223813044324ZM1911.7247592659169 557.2456207299758Q1898.8668192195105 557.2456207299758 1887.1245355762635 553.5360631894725Q1875.354360522937 549.8265056489691 1868.74409633422 544.1924408130167L1868.74409633422 544.1924408130167L1875.159120652384 532.9522025511909Q1881.7972762511795 538.1678962359588 1891.8381838796095 541.4869740353565Q1901.8790915080394 544.806051834754 1912.72885002876 544.806051834754L1912.72885002876 544.806051834754Q1927.1766004496676 544.806051834754 1934.0936701492524 540.2876434019606Q1941.0386312589167 535.7692349691671 1941.0386312589167 527.5133775857913L1941.0386312589167 527.5133775857913Q1941.0386312589167 521.7119642893651 1937.2175080780976 518.3928864899674Q1933.396384897278 515.0738086905696 1927.5670801907731 513.3724326757524Q1921.7656668943469 511.671056660935 1912.1152390070224 510.0533548763546L1912.1152390070224 510.0533548763546Q1899.257298960616 507.654693609563 1891.4198127284249 505.14446670245553Q1883.6102179063128 502.634239795348 1878.0877187106762 496.60969521828997Q1872.5652195150396 490.58515064123196 1872.5652195150396 479.9306319910645L1872.5652195150396 479.9306319910645Q1872.5652195150396 466.68221220355264 1883.6102179063128 458.23111494962404Q1894.6552162975859 449.8079091057744 1914.3186604032612 449.8079091057744L1914.3186604032612 449.8079091057744Q1924.5548079022442 449.8079091057744 1934.8188468113058 452.5133758834347Q1945.0549943102887 455.21884266109504 1951.6652584990052 459.6535768636516L1951.6652584990052 459.6535768636516L1945.4454740513943 471.0890549960303Q1932.3922941344354 462.05223813044324 1914.3186604032612 462.05223813044324L1914.3186604032612 462.05223813044324Q1900.6797608746438 462.05223813044324 1893.7347997649795 466.87745207410546Q1886.8177300653947 471.7026660177677 1886.8177300653947 479.5401522499589L1886.8177300653947 479.5401522499589Q1886.8177300653947 485.5646968270169 1890.7225274764505 489.16268872720434Q1894.6552162975859 492.7885720374708 1900.4566295940117 494.48994805228807Q1906.2859343005175 496.19132406710537 1916.5220817995 498.0042657222386L1916.5220817995 498.0042657222386Q1929.1847819753534 500.4029269890302 1936.827028336992 502.8294796659008Q1944.4413832885512 505.2281409326924 1949.880208253951 511.0574456391976Q1955.2911418092717 516.8867503457029 1955.2911418092717 527.1228978446857L1955.2911418092717 527.1228978446857Q1955.2911418092717 540.984928653935 1943.7440980365768 549.1013289869159Q1932.1970542638824 557.2456207299758 1911.7247592659169 557.2456207299758L1911.7247592659169 557.2456207299758ZM2009.9025227438992 557.2456207299758Q1997.0724741075724 557.2456207299758 1985.3022990542459 553.5360631894725Q1973.5600154109984 549.8265056489691 1966.949751222282 544.1924408130167L1966.949751222282 544.1924408130167L1973.3647755404454 532.9522025511909Q1980.002931139241 538.1678962359588 1990.0438387676709 541.4869740353565Q2000.0847463961009 544.806051834754 2010.9066135067424 544.806051834754L2010.9066135067424 544.806051834754Q2025.382255337729 544.806051834754 2032.2993250373142 540.2876434019606Q2039.244286146978 535.7692349691671 2039.244286146978 527.5133775857913L2039.244286146978 527.5133775857913Q2039.244286146978 521.7119642893651 2035.423162966159 518.3928864899674Q2031.60203978534 515.0738086905696 2025.7727350788346 513.3724326757524Q2019.9434303723292 511.671056660935 2010.3208938950838 510.0533548763546L2010.3208938950838 510.0533548763546Q1997.462953848678 507.654693609563 1989.6254676164863 505.14446670245553Q1981.787981384295 502.634239795348 1976.2654821886586 496.60969521828997Q1970.7429829930225 490.58515064123196 1970.7429829930225 479.9306319910645L1970.7429829930225 479.9306319910645Q1970.7429829930225 466.68221220355264 1981.787981384295 458.23111494962404Q1992.8329797755682 449.8079091057744 2012.5243152913226 449.8079091057744L2012.5243152913226 449.8079091057744Q2022.7604627903056 449.8079091057744 2032.9966102892886 452.5133758834347Q2043.2606491983506 455.21884266109504 2049.8709133870666 459.6535768636516L2049.8709133870666 459.6535768636516L2043.6511289394562 471.0890549960303Q2030.5979490224968 462.05223813044324 2012.5243152913226 462.05223813044324L2012.5243152913226 462.05223813044324Q1998.8575243526261 462.05223813044324 1991.9404546530413 466.87745207410546Q1985.0233849534557 471.7026660177677 1985.0233849534557 479.5401522499589L1985.0233849534557 479.5401522499589Q1985.0233849534557 485.5646968270169 1988.928182364512 489.16268872720434Q1992.8329797755682 492.7885720374708 1998.6622844820736 494.48994805228807Q2004.4915891885785 496.19132406710537 2014.7277366875614 498.0042657222386L2014.7277366875614 498.0042657222386Q2027.3904368634148 500.4029269890302 2035.0047918149744 502.8294796659008Q2042.647038176613 505.2281409326924 2048.057971731934 511.0574456391976Q2053.496796697333 516.8867503457029 2053.496796697333 527.1228978446857L2053.496796697333 527.1228978446857Q2053.496796697333 540.984928653935 2041.9497529246387 549.1013289869159Q2030.4027091519438 557.2456207299758 2009.9025227438992 557.2456207299758L2009.9025227438992 557.2456207299758Z " fill="#e0e0e0" transform="matrix(0.4261024360242978,0,0,0.4261024360242978,0,94.513980749446)"/></g></svg>